<svg version="1.0" xmlns="http://www.w3.org/2000/svg" width="581.333" height="128" viewBox="0 0 436 96"><path d="M19.2 5.9C13 8 10.5 10.1 7.8 15.3c-4.5 8.9-3 20.3 3.9 29.3 2.7 3.5 3.8 5.9 3.8 8.4 0 3.4.1 3.5 4.2 3.8 3.5.3 4.8 1.1 8.7 5.2 4.1 4.3 4.6 5.4 4.6 9.5 0 10.8-11.5 11.4-13.6.7-.4-1.8-1.4-3.7-2.3-4.1-1.7-.9-9.8 0-12 1.3-2.6 1.6 1.1 13.6 5.8 19 3.4 3.8 8.7 5.6 16.9 5.6 6.6 0 8.5-.4 11.3-2.3 12.5-8.4 12.9-27 .9-40-3.1-3.5-4-5.2-3.8-7.4.3-2.6 0-2.8-4.2-3.3-3.8-.4-4.8-1.1-7.3-4.6-5.7-8.2-4.3-17.9 2.6-17.2 2.6.2 3.6 1.1 5.3 4.3 2.3 4.6 4.7 5.3 11.4 3.5l4.2-1.1-.6-4.1c-.9-5.4-2.8-8.9-7-12.6-6-5.3-12.7-6.3-21.4-3.3zm151.6.7c-1.6.5-1.8 2.3-1.8 19.4v18.9l-3 2.1c-3.8 2.7-3.8 4.5 0 6.5l3 1.5.2 19.3.3 19.2h36l.3-6.1c.2-4.2-.1-6.4-1.1-7.2-.7-.6-5.6-1.3-10.8-1.4l-9.4-.3-.3-12.1c-.3-12-.3-12.1 2.3-13.2 3.2-1.5 3.2-3.7.1-5.8-2.5-1.5-2.5-1.7-2.8-20.4-.2-10.4-.6-19.2-1-19.6-.9-.9-9.7-1.4-12-.8zm98 .5c-1.6.9-1.8 3-1.8 19.9v18.9l-3 1.6c-3.8 2-3.8 4 0 6l3 1.5.2 19.3.3 19.2 6.4.3c4.5.2 6.7-.1 7.2-1 .5-.7.9-8.3.9-16.9 0-10.7.4-15.9 1.2-16.7 1.6-1.6 8-1.5 10.4.2 1.7 1.3 2 3.1 2.4 17.8l.5 16.3h13l.3-18.7.2-18.7 3-2.1c3.8-2.7 3.8-4.1 0-6.8l-3-2.3V26.1c0-20.8.2-20.1-6.3-20.1-8 0-7.7-.5-7.7 16.4 0 18.2-.6 20-6.8 20.4-7 .5-7.2.1-7.2-18.4 0-15.1-.1-16.4-1.9-17.4-2.5-1.3-9.1-1.3-11.3.1zM389 7c-1.2.8-1.6 4.4-1.8 19.9-.4 18.8-.4 19-2.8 20.6-3.1 2-3.1 4.2.1 5.7l2.5 1.1v17.3c0 9.5.4 18.4 1 19.8l1 2.6h14.3c12.8 0 14.7-.2 18.7-2.3 2.6-1.2 5.7-4 7.4-6.4 2.6-3.7 3-5.4 3.4-12.7.6-10.8-.1-14.2-3.9-19.9l-3-4.6 2.8-4.8c2.4-4.2 2.8-5.8 2.8-12.8 0-6.7-.4-8.9-2.6-13-2.7-5.4-7-8.9-12.8-10.5-4.6-1.3-25.1-1.3-27.1 0zm24.2 16.8c4.1 3.5 2.9 14.3-1.8 16.4-5.8 2.7-9.3-3.1-7.8-12.8.9-6.3 4.8-7.8 9.6-3.6zm.8 34.7c3 3.2 3.9 10.9 1.6 15.3-1.9 3.8-4.7 5.4-8.4 5l-2.7-.3-.3-9.9c-.2-6.4.1-10.3.9-11.2 1.8-2.2 6.3-1.7 8.9 1.1zM58.4 8.3c-.3.8-.4 3.9-.2 6.8l.3 5.4 5.5.8c3 .4 5.9 1.2 6.4 1.7.6.6 1.2 5.8 1.4 11.5l.4 10.4-3.6 2.2c-4.3 2.5-4.5 4.3-.8 6.6 1.5 1 3 2.2 3.4 2.8.4.5.8 9.2.8 19.2V94h6.5c6.1 0 6.6-.2 7.5-2.6.6-1.4 1-10.1 1-19.2V55.4l3-1.7c1.7-1 3-2.2 3-2.7s-1.3-1.9-3-3.2l-3-2.2V34.3c0-12.6-.4-12 7.6-13.1l4.9-.7v-13l-20.3-.3c-16.5-.2-20.3 0-20.8 1.1zm51.6.5c0 1.1 2.9 10.4 6.5 20.7 5.9 17 6.4 19 5 20.5-2 2.2-1.9 3.7.3 4.9 4.8 2.8 4.7 2.2 5.2 20.8l.5 17.8 6.4.3c4.5.2 6.7-.1 7.2-1 .5-.7.9-9 .9-18.3V57.4l3-1.7c3.3-2 3.7-3.3 1.5-5.7-1.2-1.3-1.2-2.1 0-5.5.7-2.2 3.6-10.5 6.4-18.4 2.8-8 5.1-15.5 5.1-16.8 0-2.3-.2-2.4-7.7-2.1l-7.6.3-3.7 11c-2.2 6.6-4.2 11-5 11-.8 0-2.7-4.3-4.9-11l-3.6-11-7.7-.3c-7.1-.3-7.8-.1-7.8 1.6zm107 .1c-.6 1.2-1 9.3-1 19.3v17.4l-3.2 2.4-3.2 2.3 3.2 2.7 3.2 2.6v17.3c0 10 .4 18 1 19.2 1 1.8 2.3 1.9 19 1.9 20.2 0 20 .1 20-7.9 0-6.3-1.6-7.1-13-7.1-9.2 0-10-.2-11.1-2.2-1.6-2.9-.7-16.7 1.2-17.9.8-.5 4.1-.9 7.4-.9 3.4 0 6.6-.5 7.3-1.2 1.6-1.6 1.6-11 0-12.6-.7-.7-3.9-1.2-7.2-1.2-8.6 0-9-.5-9.4-9.8-.6-12-.3-12.2 12.3-12.2 11.6 0 12.5-.5 12.5-7 0-7-.1-7-20-7-16.7 0-18 .1-19 1.9zm112.2-.7c-.9.9-1.2 6.2-1.2 19.4v18.3l-3 1.8c-3.8 2.2-3.8 3.8-.1 5.7l2.8 1.5.5 12.8c.4 10.5.9 13.5 2.6 17 3.9 7.6 13.2 12 22.3 10.8 6.2-.9 10.6-3.8 14.7-9.9 3.2-4.8 3.2-4.9 3.2-17.1V56.1l3-2.1c3.8-2.7 3.8-4.5 0-6.5l-3-1.5-.2-19.3-.3-19.2h-13L357 41c-.4 24.6-.8 34.1-1.8 35.7-2.2 3.9-9 4.2-10.9.5-.4-.9-1-17-1.3-35.7l-.5-34-6-.3c-3.8-.2-6.5.2-7.3 1z"/></svg>